<svg width="28" height="28" viewBox="0 0 28 28" fill="none" xmlns="http://www.w3.org/2000/svg">
<g id="Icon">
<path id="Icon_2" fill-rule="evenodd" clip-rule="evenodd" d="M8.40001 20.5333C8.40001 21.56 9.24001 22.4 10.2667 22.4H17.7333C18.76 22.4 19.6 21.56 19.6 20.5333V11.2C19.6 10.1733 18.76 9.33334 17.7333 9.33334H10.2667C9.24001 9.33334 8.40001 10.1733 8.40001 11.2V20.5333ZM19.6 6.53334H17.2667L16.604 5.87067C16.436 5.70267 16.1933 5.60001 15.9507 5.60001H12.0493C11.8067 5.60001 11.564 5.70267 11.396 5.87067L10.7333 6.53334H8.40001C7.88667 6.53334 7.46667 6.95334 7.46667 7.46667C7.46667 7.98001 7.88667 8.40001 8.40001 8.40001H19.6C20.1133 8.40001 20.5333 7.98001 20.5333 7.46667C20.5333 6.95334 20.1133 6.53334 19.6 6.53334Z" fill="#C3CAD9"/>
</g>
</svg>
