<svg width="28" height="28" viewBox="0 0 28 28" fill="none" xmlns="http://www.w3.org/2000/svg">
<g id="Icon">
<path id="Icon_2" fill-rule="evenodd" clip-rule="evenodd" d="M8.39999 12.1333C7.37333 12.1333 6.53333 12.9733 6.53333 14C6.53333 15.0267 7.37333 15.8667 8.39999 15.8667C9.42666 15.8667 10.2667 15.0267 10.2667 14C10.2667 12.9733 9.42666 12.1333 8.39999 12.1333ZM19.6 12.1333C18.5733 12.1333 17.7333 12.9733 17.7333 14C17.7333 15.0267 18.5733 15.8667 19.6 15.8667C20.6267 15.8667 21.4667 15.0267 21.4667 14C21.4667 12.9733 20.6267 12.1333 19.6 12.1333ZM14 12.1333C12.9733 12.1333 12.1333 12.9733 12.1333 14C12.1333 15.0267 12.9733 15.8667 14 15.8667C15.0267 15.8667 15.8667 15.0267 15.8667 14C15.8667 12.9733 15.0267 12.1333 14 12.1333Z" fill="#C3CAD9"/>
</g>
</svg>
